<?xml version="1.0" encoding="UTF-8" standalone="no"?>
<!DOCTYPE svg PUBLIC "-//W3C//DTD SVG 1.1//EN" "http://www.w3.org/Graphics/SVG/1.1/DTD/svg11.dtd">
<svg width="100%" height="100%" viewBox="0 0 277 284" version="1.1" xmlns="http://www.w3.org/2000/svg" xmlns:xlink="http://www.w3.org/1999/xlink" xml:space="preserve" xmlns:serif="http://www.serif.com/" style="fill-rule:evenodd;clip-rule:evenodd;stroke-linejoin:round;stroke-miterlimit:2;">
    <g transform="matrix(2.76282,0,0,1.29069,-1105.13,0)">
        <rect x="400" y="0" width="100" height="220" style="fill:rgb(249,243,245);"/>
    </g>
    <g transform="matrix(0.806687,0,0,0.373466,-6470.46,-147.173)">
        <g transform="matrix(1.47798,0,0,3.19244,1965.84,-7342.17)">
            <path d="M4305.68,2534.48C4306.06,2537.93 4306.26,2541.43 4306.26,2544.98C4306.26,2596.56 4264.38,2638.44 4212.79,2638.44C4161.21,2638.44 4119.33,2596.56 4119.33,2544.98C4119.33,2541.43 4119.52,2537.93 4119.91,2534.48C4125.13,2581.14 4164.76,2617.46 4212.79,2617.46C4260.83,2617.46 4300.45,2581.14 4305.68,2534.48Z" style="fill:rgb(94,76,99);"/>
        </g>
        <g transform="matrix(1.22821,0,0,2.65294,3018.06,-6036.16)">
            <path d="M4180.3,2632.63C4144.71,2619.42 4119.33,2585.14 4119.33,2544.98C4119.33,2493.39 4161.21,2451.51 4212.79,2451.51C4264.38,2451.51 4306.26,2493.39 4306.26,2544.98C4306.26,2585.14 4280.87,2619.42 4245.29,2632.63C4257.77,2622.93 4265.81,2607.77 4265.81,2590.75C4265.81,2561.49 4242.05,2537.73 4212.79,2537.73C4183.53,2537.73 4159.78,2561.49 4159.78,2590.75C4159.78,2607.77 4167.82,2622.93 4180.3,2632.63Z" style="fill:rgb(154,114,208);"/>
        </g>
    </g>
</svg>
